<svg width="45" height="45" viewBox="0 0 45 45" fill="none" xmlns="http://www.w3.org/2000/svg">
<path opacity="0.25" d="M43.875 22.5C43.875 34.3051 34.3051 43.875 22.5 43.875C10.6949 43.875 1.125 34.3051 1.125 22.5C1.125 10.6949 10.6949 1.125 22.5 1.125C34.3051 1.125 43.875 10.6949 43.875 22.5Z" stroke="white" stroke-width="2.25"/>
<path d="M17.6875 19.375C18.6195 19.375 19.375 18.6195 19.375 17.6875C19.375 16.7555 18.6195 16 17.6875 16C16.7555 16 16 16.7555 16 17.6875C16 18.6195 16.7555 19.375 17.6875 19.375Z" fill="white"/>
<path d="M19.0938 20.5H16.2812C16.126 20.5 16 20.626 16 20.7812V29.2188C16 29.374 16.126 29.5 16.2812 29.5H19.0938C19.249 29.5 19.375 29.374 19.375 29.2188V20.7812C19.375 20.626 19.249 20.5 19.0938 20.5Z" fill="white"/>
<path d="M27.4733 20.1125C26.2712 19.7007 24.7677 20.0624 23.866 20.711C23.8351 20.59 23.7248 20.5 23.5938 20.5H20.7812C20.626 20.5 20.5 20.626 20.5 20.7813V29.2188C20.5 29.374 20.626 29.5 20.7812 29.5H23.5938C23.749 29.5 23.875 29.374 23.875 29.2188V23.155C24.3295 22.7635 24.9151 22.6387 25.3943 22.8423C25.8589 23.0386 26.125 23.5178 26.125 24.1563V29.2188C26.125 29.374 26.251 29.5 26.4062 29.5H29.2188C29.374 29.5 29.5 29.374 29.5 29.2188V23.5898C29.4679 21.2785 28.3806 20.423 27.4733 20.1125Z" fill="white"/>
</svg>
