<svg width="29" height="29" viewBox="0 0 29 29" fill="none" xmlns="http://www.w3.org/2000/svg">
<path d="M16.2047 0.424316V2.35275C18.1121 2.35275 19.899 2.83486 21.5654 3.79908C23.1516 4.74321 24.4165 6.00875 25.3601 7.59569C26.3238 9.26299 26.8057 11.0508 26.8057 12.9592H28.7332C28.7332 10.6892 28.1609 8.58 27.0165 6.63147C25.9122 4.74321 24.4165 3.24666 22.5292 2.14183C20.5816 0.996821 18.4735 0.424316 16.2047 0.424316ZM6.23611 3.31697C5.69401 3.31697 5.22219 3.48772 4.82064 3.82921L1.71863 6.99305L1.80898 6.93279C1.30704 7.35464 0.97576 7.87692 0.815138 8.49965C0.674594 9.12237 0.71475 9.72501 0.935604 10.3076C1.49778 11.8744 2.25069 13.4814 3.19434 15.1286C4.51947 17.3986 6.09557 19.4375 7.92264 21.2454C10.854 24.1983 14.4981 26.5285 18.8549 28.236H18.8851C19.4673 28.4369 20.0496 28.477 20.6318 28.3565C21.2341 28.236 21.7662 27.9748 22.228 27.5731L25.2698 24.5298C25.6713 24.128 25.8721 23.6359 25.8721 23.0533C25.8721 22.4507 25.6713 21.9485 25.2698 21.5467L21.3245 17.5693C20.9229 17.1676 20.421 16.9667 19.8187 16.9667C19.2163 16.9667 18.7144 17.1676 18.3128 17.5693L16.4155 19.4978C14.8896 18.7746 13.5645 17.8807 12.4401 16.816C11.3158 15.7313 10.4223 14.4155 9.75975 12.8688L11.6872 10.9403C12.1088 10.4984 12.3196 9.97611 12.3196 9.37347C12.3196 8.75074 12.0787 8.24855 11.5969 7.86688L11.6872 7.95727L7.65159 3.82921C7.25003 3.48772 6.77821 3.31697 6.23611 3.31697ZM16.2047 4.28119V6.20963C17.4294 6.20963 18.5538 6.51095 19.5777 7.11358C20.6218 7.71622 21.445 8.53982 22.0473 9.58439C22.6496 10.6089 22.9508 11.7338 22.9508 12.9592H24.8782C24.8782 11.3923 24.4867 9.93593 23.7037 8.59004C22.9207 7.28433 21.8766 6.23976 20.5716 5.45633C19.2264 4.6729 17.7707 4.28119 16.2047 4.28119ZM6.23611 5.24541C6.29635 5.24541 6.36662 5.27554 6.44693 5.3358L10.3922 9.37347C10.4123 9.45382 10.3922 9.52413 10.332 9.58439L7.47089 12.4168L7.6817 13.0194L8.07322 13.8631C8.39446 14.5461 8.7659 15.209 9.18753 15.8518C9.76978 16.7558 10.4123 17.5292 11.115 18.172C12.0586 19.096 13.193 19.9397 14.5182 20.703C15.1807 21.0847 15.7429 21.3659 16.2047 21.5467L16.807 21.8179L19.7283 18.8951C19.7685 18.8549 19.7986 18.8349 19.8187 18.8349C19.8387 18.8349 19.8689 18.8549 19.909 18.8951L23.9747 22.9629C24.0149 23.0031 24.035 23.0332 24.035 23.0533C24.035 23.0533 24.0149 23.0734 23.9747 23.1136L20.9631 26.0966C20.5214 26.4783 20.0395 26.5787 19.5175 26.398C15.4217 24.811 12.0084 22.6415 9.27788 19.8895C7.59136 18.2021 6.11565 16.2837 4.85075 14.1343C3.94726 12.5875 3.24454 11.091 2.7426 9.64466V9.61452C2.66228 9.43373 2.65225 9.22281 2.71248 8.98176C2.77271 8.72061 2.88314 8.51973 3.04376 8.37912L6.0253 5.3358C6.08553 5.27554 6.1558 5.24541 6.23611 5.24541ZM16.2047 8.13806V10.0665C17.0078 10.0665 17.6904 10.3477 18.2526 10.9102C18.8148 11.4727 19.0959 12.1556 19.0959 12.9592H21.0233C21.0233 12.0954 20.8025 11.2919 20.3608 10.5486C19.9391 9.80536 19.3569 9.22281 18.614 8.80096C17.8711 8.35903 17.068 8.13806 16.2047 8.13806Z" fill="black"/>
</svg>
