<svg width="25" height="23" viewBox="0 0 25 23" fill="none" xmlns="http://www.w3.org/2000/svg">
<path d="M12.0245 0.463525C12.1741 0.00287008 12.8259 0.00286996 12.9755 0.463525L15.4187 7.98278C15.4856 8.18879 15.6776 8.32827 15.8942 8.32827H23.8004C24.2848 8.32827 24.4862 8.94808 24.0943 9.23278L17.6981 13.8799C17.5228 14.0073 17.4495 14.2329 17.5164 14.439L19.9596 21.9582C20.1092 22.4189 19.582 22.8019 19.1902 22.5172L12.7939 17.8701C12.6186 17.7427 12.3814 17.7427 12.2061 17.8701L5.80985 22.5172C5.41799 22.8019 4.89075 22.4189 5.04043 21.9582L7.48358 14.439C7.55052 14.2329 7.47719 14.0073 7.30194 13.8799L0.905686 9.23278C0.513829 8.94808 0.715217 8.32827 1.19958 8.32827H9.10579C9.3224 8.32827 9.51438 8.18879 9.58132 7.98278L12.0245 0.463525Z" fill="#393A3C"/>
</svg>
