<svg width="45" height="45" viewBox="0 0 45 45" fill="none" xmlns="http://www.w3.org/2000/svg">
<path opacity="0.25" d="M44 22.5C44 34.3741 34.3741 44 22.5 44C10.6259 44 1 34.3741 1 22.5C1 10.6259 10.6259 1 22.5 1C34.3741 1 44 10.6259 44 22.5Z" stroke="white" stroke-width="2"/>
<path fill-rule="evenodd" clip-rule="evenodd" d="M29.2659 17.3431C29.951 17.5244 30.4906 18.0559 30.6745 18.7295C31.0159 19.9588 30.9999 22.522 30.9999 22.522C30.9999 22.522 30.9975 25.071 30.6665 26.2996C30.4803 26.9724 29.9382 27.5031 29.2539 27.6836C28.002 28.0055 22.9935 28 22.9935 28C22.9935 28 17.9987 27.9945 16.734 27.6569C16.0481 27.4756 15.5084 26.9441 15.3246 26.2713C14.9968 25.0545 15 22.4921 15 22.4921C15 22.4921 15.0032 19.9423 15.3334 18.713C15.5188 18.0402 16.0736 17.4969 16.7452 17.3172C17.9979 16.9945 23.0055 17 23.0055 17C23.0055 17 28.014 17.0055 29.2659 17.3431ZM21.4075 20.1441L21.4035 24.8543L25.5701 22.5031L21.4075 20.1441Z" fill="white"/>
</svg>
